<svg width="696" height="209" viewBox="0 0 696 209" fill="none" xmlns="http://www.w3.org/2000/svg">
<path d="M218.465 86.8404C215.649 79.6678 210.747 73.504 204.393 69.1441C204.016 68.8885 203.702 68.5503 203.476 68.1554C203.249 67.7604 203.115 67.319 203.085 66.8647C203.078 66.7344 203.078 66.6038 203.085 66.4735C203.115 66.0869 203.137 65.7002 203.152 65.3135C203.152 64.9224 203.174 64.5312 203.174 64.1401C203.175 60.0247 202.365 55.9494 200.79 52.1472C199.216 48.3449 196.907 44.8901 193.997 41.98C191.087 39.07 187.633 36.7617 183.83 35.1871C180.028 33.6125 175.953 32.8023 171.837 32.8029H171.81C171.101 32.814 170.41 32.5722 169.862 32.1208C169.315 31.6694 168.945 31.0378 168.821 30.3391C168.171 26.3692 166.624 22.6 164.297 19.3186C161.971 16.0372 158.925 13.3303 155.394 11.4041C151.863 9.47796 147.938 8.38337 143.919 8.20378C139.901 8.0242 135.894 8.76435 132.205 10.3678C131.582 10.638 130.886 10.6867 130.231 10.5059C129.577 10.3251 129.004 9.92576 128.608 9.37422C126.57 6.47783 123.866 4.11414 120.722 2.48262C117.579 0.851104 114.089 -0.000371268 110.548 4.5594e-05C107.006 -0.00450124 103.514 0.845179 100.37 2.47704C97.2264 4.10891 94.5223 6.47484 92.4873 9.37422C92.0929 9.92949 91.5174 10.3301 90.8597 10.5072C90.2038 10.6879 89.5057 10.6387 88.8815 10.3678C85.1923 8.76435 81.1857 8.0242 77.1671 8.20378C73.1485 8.38337 69.224 9.47796 65.6925 11.4041C62.161 13.3303 59.1159 16.0372 56.7891 19.3186C54.4623 22.6 52.9153 26.3692 52.266 30.3391C52.1403 31.0382 51.7701 31.6698 51.2215 32.1212C50.673 32.5725 49.9819 32.8141 49.2717 32.8029H49.2447C40.9336 32.8029 32.9628 36.1045 27.086 41.9814C21.2091 47.8582 17.9075 55.829 17.9075 64.1401C17.9075 64.5312 17.9075 64.9224 17.93 65.3135C17.9525 65.7047 17.9705 66.0869 17.9975 66.4735C18.0087 66.6037 18.0087 66.7345 17.9975 66.8647C17.9676 67.3187 17.8347 67.76 17.6088 68.155C17.3828 68.5499 17.0699 68.8882 16.6936 69.1441C11.5419 72.666 7.32819 77.3928 4.41887 82.9137C1.50956 88.4346 -0.00736816 94.5825 -5.60139e-05 100.823C-5.60139e-05 101.241 -5.60135e-05 101.659 0.022424 102.073C0.022424 102.212 0.022424 102.347 0.022424 102.487C0.022424 102.761 0.0449041 103.04 0.0628881 103.314C0.0628881 103.476 0.0853681 103.638 0.0988561 103.799C0.0988561 104.051 0.13932 104.298 0.166296 104.546C0.166296 104.717 0.197768 104.883 0.215752 105.054C0.242728 105.297 0.2742 105.535 0.301176 105.773L0.368617 106.281C0.404585 106.528 0.445049 106.771 0.485513 107.019C0.485513 107.176 0.534969 107.333 0.561945 107.491C0.624889 107.868 0.696825 108.241 0.777753 108.615C0.813721 108.79 0.854185 108.965 0.890153 109.141C0.926121 109.316 0.984569 109.563 1.03403 109.775C1.08348 109.986 1.13294 110.175 1.18689 110.373C1.24084 110.57 1.28131 110.737 1.33076 110.921C1.38022 111.105 1.44316 111.335 1.50611 111.537L1.65447 112.045C1.72191 112.256 1.78486 112.468 1.8523 112.674L2.01416 113.151C2.08609 113.367 2.15803 113.601 2.23446 113.794L2.38283 114.194C2.56716 114.684 2.756 115.165 2.95832 115.646C2.98529 115.718 3.01676 115.79 3.04824 115.862C3.13816 116.078 3.23257 116.289 3.32699 116.501C3.39443 116.644 3.45737 116.793 3.52481 116.95C3.59225 117.108 3.70915 117.346 3.80806 117.544C3.84853 117.638 3.89349 117.728 3.93845 117.822C10.3767 131.89 30.5728 148.17 55.148 162.346C58.0824 164.043 61.0213 165.616 63.9646 167.067C64.5339 167.351 64.9976 167.81 65.2879 168.376C65.5783 168.942 65.6802 169.586 65.5787 170.214C65.0527 173.195 63.1643 178.024 61.7751 182.178C57.7826 194.093 72.2957 201.381 82.4252 204.128C82.5046 204.148 82.5827 204.174 82.659 204.204C89.1108 206.695 99.1998 208.3 110.534 208.3C121.878 208.3 131.967 206.695 138.41 204.204C138.49 204.173 138.567 204.15 138.643 204.128C148.773 201.381 163.286 194.093 159.298 182.178C157.904 178.024 156.016 173.186 155.494 170.214C155.392 169.587 155.493 168.943 155.782 168.376C156.072 167.81 156.535 167.351 157.104 167.067C160.038 165.616 162.979 164.043 165.925 162.346C190.496 148.17 210.71 131.89 217.157 117.795L217.287 117.517C217.382 117.319 217.476 117.126 217.571 116.923L217.764 116.474C217.858 116.262 217.957 116.051 218.047 115.835L218.137 115.619C218.335 115.138 218.528 114.657 218.708 114.167C218.758 114.032 218.812 113.902 218.857 113.767C218.938 113.556 219.009 113.34 219.081 113.124C219.153 112.908 219.189 112.809 219.239 112.648C219.288 112.486 219.374 112.229 219.437 112.018C219.5 111.807 219.54 111.681 219.589 111.51L219.765 110.894L219.909 110.346L220.057 109.748C220.106 109.536 220.156 109.325 220.201 109.114C220.246 108.902 220.282 108.763 220.318 108.588C220.394 108.214 220.466 107.841 220.534 107.464C220.561 107.306 220.583 107.149 220.61 106.992C220.65 106.744 220.686 106.501 220.722 106.254L220.754 105.769C220.785 105.53 220.812 105.292 220.839 105.049C220.839 104.878 220.875 104.712 220.893 104.541C220.916 104.294 220.938 104.047 220.956 103.795C220.956 103.633 220.983 103.471 220.992 103.309C220.992 103.035 221.024 102.756 221.037 102.482C221.037 102.343 221.037 102.208 221.037 102.068C221.037 101.655 221.037 101.237 221.037 100.819C221.061 96.0394 220.189 91.2982 218.465 86.8404Z" fill="url(#paint0_linear_6_3293)"/>
<path d="M383.316 121.646V40.2012H314.175V63.0527H357.535V121.646H383.316ZM307.583 121.646V40.2012H263.492V63.0527H281.802V121.646H307.583ZM392.105 171.305V144.352H344.351V102.457H315.054V144.352H258.218V171.305H392.105ZM531.265 121.646V40.2012H462.125V63.0527H505.484V121.646H531.265ZM455.533 121.646V40.2012H411.441V63.0527H429.751V121.646H455.533ZM540.054 171.305V144.352H492.3V102.457H463.003V144.352H406.167V171.305H540.054ZM598.355 91.6172H582.242V57.7793H598.355V91.6172ZM627.212 111.1V38.4434H553.384V111.1H627.212ZM672.623 180.973V127.066H560.416V151.09H643.326V180.973H672.623ZM672.769 122.525V94.6934H688.882V68.9121H672.769V35.6602H643.472V122.525H672.769Z" fill="#8B91E4"/>
<defs>
<linearGradient id="paint0_linear_6_3293" x1="110.543" y1="208.282" x2="110.543" y2="2.48292e-05" gradientUnits="userSpaceOnUse">
<stop stop-color="#726FD6"/>
<stop offset="0.51875" stop-color="#96A2EA"/>
<stop offset="1" stop-color="#A1C0E6"/>
</linearGradient>
</defs>
</svg>
