<svg width="113" height="35" viewBox="0 0 113 35" fill="none" xmlns="http://www.w3.org/2000/svg">
<path d="M30.2955 12.0425C29.9048 11.0479 29.2251 10.1931 28.344 9.58849C28.2917 9.55304 28.2482 9.50615 28.2168 9.45138C28.1854 9.39661 28.1668 9.3354 28.1625 9.27239C28.1616 9.25432 28.1616 9.23622 28.1625 9.21815C28.1667 9.16453 28.1698 9.11091 28.1719 9.05729C28.1719 9.00305 28.175 8.9488 28.175 8.89456C28.1751 8.32386 28.0627 7.75873 27.8444 7.23146C27.626 6.70418 27.3059 6.22509 26.9024 5.82154C26.4988 5.41799 26.0197 5.0979 25.4925 4.87954C24.9652 4.66118 24.4001 4.54883 23.8294 4.54891H23.8256C23.7272 4.55044 23.6315 4.51691 23.5555 4.45432C23.4795 4.39172 23.4283 4.30414 23.411 4.20724C23.321 3.65673 23.1064 3.13403 22.7838 2.67899C22.4611 2.22395 22.0388 1.84857 21.5491 1.58146C21.0594 1.31435 20.5151 1.16256 19.9579 1.13765C19.4006 1.11275 18.845 1.21539 18.3334 1.43775C18.247 1.47521 18.1504 1.48197 18.0597 1.4569C17.9689 1.43183 17.8895 1.37644 17.8346 1.29996C17.552 0.898306 17.1769 0.570524 16.741 0.344275C16.3051 0.118026 15.8212 -5.14851e-05 15.3301 6.32271e-06C14.8389 -0.000624205 14.3548 0.117204 13.9188 0.343502C13.4828 0.569799 13.1078 0.897891 12.8256 1.29996C12.7709 1.37696 12.6911 1.43252 12.5999 1.45708C12.5089 1.48213 12.4121 1.47531 12.3256 1.43775C11.814 1.21539 11.2583 1.11275 10.7011 1.13765C10.1438 1.16256 9.59956 1.31435 9.10984 1.58146C8.62012 1.84857 8.19784 2.22395 7.87517 2.67899C7.55251 3.13403 7.33798 3.65673 7.24794 4.20724C7.2305 4.30419 7.17916 4.39178 7.10309 4.45437C7.02703 4.51696 6.93119 4.55047 6.8327 4.54891H6.82896C5.67642 4.54891 4.57109 5.00675 3.75612 5.82172C2.94115 6.63669 2.48331 7.74202 2.48331 8.89456C2.48331 8.9488 2.48331 9.00305 2.48643 9.05729C2.48954 9.11153 2.49204 9.16453 2.49578 9.21815C2.49733 9.23619 2.49733 9.25434 2.49578 9.27239C2.49164 9.33535 2.47321 9.39655 2.44188 9.45132C2.41055 9.50609 2.36715 9.553 2.31497 9.58849C1.60055 10.0769 1.01623 10.7324 0.612783 11.498C0.209336 12.2636 -0.00102177 13.1161 -7.76767e-06 13.9815C-7.76767e-06 14.0395 -7.76761e-06 14.0975 0.00310963 14.1549C0.00310963 14.1742 0.00310963 14.1929 0.00310963 14.2122C0.00310963 14.2502 0.00622702 14.2889 0.00872094 14.3269C0.00872094 14.3494 0.0118383 14.3718 0.0137088 14.3943C0.0137088 14.4292 0.0193201 14.4635 0.023061 14.4978C0.023061 14.5215 0.0274253 14.5445 0.0299192 14.5682C0.0336601 14.6019 0.0380245 14.6349 0.0417653 14.668L0.0511175 14.7384C0.0561054 14.7727 0.0617167 14.8064 0.067328 14.8407C0.067328 14.8625 0.0741863 14.8843 0.0779271 14.9061C0.0866558 14.9585 0.0966315 15.0103 0.107854 15.062C0.112842 15.0863 0.118453 15.1106 0.123441 15.135C0.128429 15.1593 0.136534 15.1936 0.143392 15.2229C0.150251 15.2522 0.157109 15.2784 0.164591 15.3058C0.172072 15.3332 0.177684 15.3563 0.184542 15.3819C0.1914 15.4074 0.200129 15.4392 0.208858 15.4673L0.229433 15.5377C0.238785 15.567 0.247513 15.5963 0.256866 15.625L0.279311 15.6911C0.289287 15.721 0.299262 15.7535 0.309861 15.7803L0.330436 15.8358C0.355999 15.9037 0.382185 15.9704 0.410242 16.0371C0.413982 16.0471 0.418347 16.0571 0.422711 16.0671C0.435181 16.097 0.448274 16.1263 0.461367 16.1556C0.470719 16.1755 0.479448 16.1961 0.4888 16.2179C0.498152 16.2398 0.514363 16.2728 0.528079 16.3002C0.53369 16.3133 0.539925 16.3258 0.54616 16.3389C1.43898 18.2898 4.23965 20.5474 7.64759 22.5132C8.05451 22.7485 8.46206 22.9667 8.87023 23.1679C8.94918 23.2073 9.01347 23.2709 9.05374 23.3494C9.094 23.4279 9.10813 23.5172 9.09406 23.6043C9.02111 24.0177 8.75925 24.6873 8.5666 25.2634C8.01295 26.9156 10.0255 27.9263 11.4302 28.3072C11.4412 28.3101 11.4521 28.3136 11.4627 28.3178C12.3573 28.6632 13.7564 28.8858 15.3282 28.8858C16.9013 28.8858 18.3004 28.6632 19.1938 28.3178C19.205 28.3134 19.2156 28.3103 19.2262 28.3072C20.6309 27.9263 22.6435 26.9156 22.0905 25.2634C21.8972 24.6873 21.6353 24.0164 21.563 23.6043C21.5488 23.5173 21.5628 23.428 21.6029 23.3494C21.6431 23.2709 21.7073 23.2073 21.7862 23.1679C22.1931 22.9667 22.6009 22.7485 23.0095 22.5132C26.4168 20.5474 29.22 18.2898 30.114 16.3352L30.1321 16.2965C30.1452 16.2691 30.1583 16.2423 30.1714 16.2142L30.1982 16.1519C30.2113 16.1226 30.225 16.0933 30.2375 16.0633L30.25 16.0334C30.2774 15.9667 30.3042 15.9 30.3291 15.832C30.336 15.8133 30.3435 15.7952 30.3497 15.7765C30.3609 15.7472 30.3709 15.7173 30.3809 15.6874C30.3909 15.6574 30.3958 15.6437 30.4027 15.6213C30.4096 15.5988 30.4214 15.5633 30.4301 15.534C30.4389 15.5047 30.4445 15.4872 30.4513 15.4635L30.4757 15.3781L30.4956 15.3021L30.5162 15.2191C30.523 15.1898 30.5299 15.1605 30.5361 15.1312C30.5424 15.1019 30.5474 15.0826 30.5523 15.0583C30.5629 15.0065 30.5729 14.9548 30.5823 14.9024C30.586 14.8806 30.5891 14.8588 30.5929 14.8369C30.5985 14.8026 30.6035 14.769 30.6085 14.7347L30.6128 14.6674C30.6172 14.6343 30.6209 14.6013 30.6247 14.5676C30.6247 14.5439 30.6297 14.5208 30.6321 14.4971C30.6353 14.4629 30.6384 14.4286 30.6409 14.3936C30.6409 14.3712 30.6446 14.3488 30.6459 14.3263C30.6459 14.2883 30.6502 14.2496 30.6521 14.2116C30.6521 14.1923 30.6521 14.1736 30.6521 14.1542C30.6521 14.0969 30.6521 14.0389 30.6521 13.9809C30.6554 13.3182 30.5344 12.6607 30.2955 12.0425Z" fill="#595FFF"/>
<path d="M62.1406 19.0234V5.99219H51.0781V9.64844H58.0156V19.0234H62.1406ZM50.0234 19.0234V5.99219H42.9688V9.64844H45.8984V19.0234H50.0234ZM63.5469 26.9688V22.6562H55.9062V15.9531H51.2188V22.6562H42.125V26.9688H63.5469ZM85.8125 19.0234V5.99219H74.75V9.64844H81.6875V19.0234H85.8125ZM73.6953 19.0234V5.99219H66.6406V9.64844H69.5703V19.0234H73.6953ZM87.2188 26.9688V22.6562H79.5781V15.9531H74.8906V22.6562H65.7969V26.9688H87.2188ZM96.5469 14.2188H93.9688V8.80469H96.5469V14.2188ZM101.164 17.3359V5.71094H89.3516V17.3359H101.164ZM108.43 28.5156V19.8906H90.4766V23.7344H103.742V28.5156H108.43ZM108.453 19.1641V14.7109H111.031V10.5859H108.453V5.26562H103.766V19.1641H108.453Z" fill="#595FFF"/>
</svg>
